<mxfile host="app.diagrams.net" modified="2024-05-02T07:15:27.112Z" agent="Mozilla/5.0 (Windows NT 10.0; Win64; x64) AppleWebKit/537.36 (KHTML, like Gecko) Chrome/124.0.0.0 Safari/537.36 Edg/124.0.0.0" version="24.3.1" etag="aNT3jklS2Dit0ryoQhzg" type="github">
  <diagram name="Page-1" id="S52DT9i-jR_PhGcEb9Mo">
    <mxGraphModel>
      <root>
        <mxCell id="0" />
        <mxCell id="1" parent="0" />
      </root>
    </mxGraphModel>
  </diagram>
</mxfile>
